<svg version="1.1" viewBox="0.0 0.0 240.0 240.0" fill="none" stroke="none" stroke-linecap="square" stroke-miterlimit="10" xmlns:xlink="http://www.w3.org/1999/xlink" xmlns="http://www.w3.org/2000/svg">

<g clip-path="url(#p.0)"><path fill="#000000" fill-opacity="0.0" d="m0 0l800.0 0l0 600.0l-800.0 0z" fill-rule="evenodd"/>
<path fill="#ffffff" d="m3.183727 72.40244l0 0c0 -23.96761 19.429585 -43.397194 43.397194 -43.397194l255.91429 0c11.509644 0 22.547882 4.572193 30.686432 12.710743c8.13855 8.138554 12.710754 19.1768 12.710754 30.686451l0 173.58356c0 23.967606 -19.429596 43.3972 -43.397186 43.3972l-255.91429 0l0 0c-23.96761 0 -43.397194 -19.429596 -43.397194 -43.3972z" fill-rule="evenodd"/>
<path stroke="#000000" stroke-width="12.0" stroke-linejoin="round" stroke-linecap="butt" d="m3.183727 72.40244l0 0c0 -23.96761 19.429585 -43.397194 43.397194 -43.397194l255.91429 0c11.509644 0 22.547882 4.572193 30.686432 12.710743c8.13855 8.138554 12.710754 19.1768 12.710754 30.686451l0 173.58356c0 23.967606 -19.429596 43.3972 -43.397186 43.3972l-255.91429 0l0 0c-23.96761 0 -43.397194 -19.429596 -43.397194 -43.3972z" fill-rule="evenodd"/>
<path fill="#ffffff" d="m53.61155 120.0105l89.54331 0l0 22.393707l-89.54331 0z" fill-rule="evenodd"/>
<path stroke="#000000" stroke-width="8.0" stroke-linejoin="round" stroke-linecap="butt" d="m53.61155 120.0105l89.54331 0l0 22.393707l-89.54331 0z" fill-rule="evenodd"/>
<path fill="#ffffff" d="m204.43297 120.0105l89.54329 0l0 22.393707l-89.54329 0z" fill-rule="evenodd"/>
<path stroke="#000000" stroke-width="8.0" stroke-linejoin="round" stroke-linecap="butt" d="m204.43297 120.0105l89.54329 0l0 22.393707l-89.54329 0z" fill-rule="evenodd"/>
<path fill="#ffffff" d="m53.61155 166.42023l89.54331 0l0 22.393707l-89.54331 0z" fill-rule="evenodd"/>
<path stroke="#000000" stroke-width="8.0" stroke-linejoin="round" stroke-linecap="butt" d="m53.61155 166.42023l89.54331 0l0 22.393707l-89.54331 0z" fill-rule="evenodd"/>
<path fill="#ffffff" d="m204.43297 166.42023l89.54329 0l0 22.393707l-89.54329 0z" fill-rule="evenodd"/>
<path stroke="#000000" stroke-width="8.0" stroke-linejoin="round" stroke-linecap="butt" d="m204.43297 166.42023l89.54329 0l0 22.393707l-89.54329 0z" fill-rule="evenodd"/>
<path fill="#ffffff" d="m53.61155 212.82996l89.54331 0l0 22.393692l-89.54331 0z" fill-rule="evenodd"/>
<path stroke="#000000" stroke-width="8.0" stroke-linejoin="round" stroke-linecap="butt" d="m53.61155 212.82996l89.54331 0l0 22.393692l-89.54331 0z" fill-rule="evenodd"/>
<path fill="#ffffff" d="m204.43297 212.82996l89.54329 0l0 22.393692l-89.54329 0z" fill-rule="evenodd"/>
<path stroke="#000000" stroke-width="8.0" stroke-linejoin="round" stroke-linecap="butt" d="m204.43297 212.82996l89.54329 0l0 22.393692l-89.54329 0z" fill-rule="evenodd"/>
<path fill="#ffffff" d="m87.580055 3.601122l0 0c0 -1.9888448 1.6122742 -3.601122 3.60112 -3.601122l14.404053 0l0 0c0.9550781 0 1.8710403 0.37940282 2.546379 1.0547441c0.67533875 0.67534137 1.0547409 1.5913008 1.0547409 2.5463777l0 36.010353c0 1.9888458 -1.6122742 3.60112 -3.60112 3.60112l-14.404053 0c-1.9888458 0 -3.60112 -1.6122742 -3.60112 -3.60112z" fill-rule="evenodd"/>
<path stroke="#000000" stroke-width="4.0" stroke-linejoin="round" stroke-linecap="butt" d="m87.580055 3.601122l0 0c0 -1.9888448 1.6122742 -3.601122 3.60112 -3.601122l14.404053 0l0 0c0.9550781 0 1.8710403 0.37940282 2.546379 1.0547441c0.67533875 0.67534137 1.0547409 1.5913008 1.0547409 2.5463777l0 36.010353c0 1.9888458 -1.6122742 3.60112 -3.60112 3.60112l-14.404053 0c-1.9888458 0 -3.60112 -1.6122742 -3.60112 -3.60112z" fill-rule="evenodd"/>
<path fill="#ffffff" d="m238.40158 3.601122l0 0c0 -1.9888448 1.6122742 -3.601122 3.60112 -3.601122l14.404037 0l0 0c0.9550781 0 1.8710632 0.37940282 2.5463867 1.0547441c0.675354 0.67534137 1.0547485 1.5913008 1.0547485 2.5463777l0 36.010353c0 1.9888458 -1.6122742 3.60112 -3.6011353 3.60112l-14.404037 0c-1.9888458 0 -3.60112 -1.6122742 -3.60112 -3.60112z" fill-rule="evenodd"/>
<path stroke="#000000" stroke-width="4.0" stroke-linejoin="round" stroke-linecap="butt" d="m238.40158 3.601122l0 0c0 -1.9888448 1.6122742 -3.601122 3.60112 -3.601122l14.404037 0l0 0c0.9550781 0 1.8710632 0.37940282 2.5463867 1.0547441c0.675354 0.67534137 1.0547485 1.5913008 1.0547485 2.5463777l0 36.010353c0 1.9888458 -1.6122742 3.60112 -3.6011353 3.60112l-14.404037 0c-1.9888458 0 -3.60112 -1.6122742 -3.60112 -3.60112z" fill-rule="evenodd"/>
<path fill="#000000" fill-opacity="0.0" d="m4.2125983 89.13386l344.75592 0" fill-rule="evenodd"/><path stroke="#000000" stroke-width="4.0" stroke-linejoin="round" stroke-linecap="butt" d="m4.2125983 89.13386l344.75592 0" fill-rule="evenodd"/>
</g>
</svg>