<svg version="1.1" viewBox="0.0 0.0 240.0 240.0" fill="none" stroke="none" stroke-linecap="square" stroke-miterlimit="10" xmlns:xlink="http://www.w3.org/1999/xlink" xmlns="http://www.w3.org/2000/svg">

<g clip-path="url(#p.0)">
<path fill="#000000" fill-opacity="0.0" d="m0 0l800.0 0l0 600.0l-800.0 0z" fill-rule="evenodd"/>
<path fill="#ffffff" d="m0 72.40244l0 0c0 -23.96761 19.429585 -43.397194 43.397194 -43.397194l255.91428 0c11.509644 0 22.547913 4.572193 30.686462 12.710743c8.13855 8.138554 12.710724 19.1768 12.710724 30.686451l0 173.58356c0 23.967606 -19.429565 43.3972 -43.397186 43.3972l-255.91428 0l0 0c-23.96761 0 -43.397194 -19.429596 -43.397194 -43.3972z" fill-rule="evenodd"/>
<path stroke="#000000" stroke-width="12.0" stroke-linejoin="round" stroke-linecap="butt" d="m0 72.40244l0 0c0 -23.96761 19.429585 -43.397194 43.397194 -43.397194l255.91428 0c11.509644 0 22.547913 4.572193 30.686462 12.710743c8.13855 8.138554 12.710724 19.1768 12.710724 30.686451l0 173.58356c0 23.967606 -19.429565 43.3972 -43.397186 43.3972l-255.91428 0l0 0c-23.96761 0 -43.397194 -19.429596 -43.397194 -43.3972z" fill-rule="evenodd"/>
<path fill="#ffffff" d="m84.396324 3.601122l0 0c0 -1.9888448 1.6122818 -3.601122 3.60112 -3.601122l14.40406 0l0 0c0.9550781 0 1.8710327 0.37940282 2.546379 1.0547441c0.67533875 0.67534137 1.0547409 1.5913008 1.0547409 2.5463777l0 36.010353c0 1.9888458 -1.6122742 3.60112 -3.60112 3.60112l-14.40406 0c-1.9888382 0 -3.60112 -1.6122742 -3.60112 -3.60112z" fill-rule="evenodd"/>
<path stroke="#000000" stroke-width="4.0" stroke-linejoin="round" stroke-linecap="butt" d="m84.396324 3.601122l0 0c0 -1.9888448 1.6122818 -3.601122 3.60112 -3.601122l14.40406 0l0 0c0.9550781 0 1.8710327 0.37940282 2.546379 1.0547441c0.67533875 0.67534137 1.0547409 1.5913008 1.0547409 2.5463777l0 36.010353c0 1.9888458 -1.6122742 3.60112 -3.60112 3.60112l-14.40406 0c-1.9888382 0 -3.60112 -1.6122742 -3.60112 -3.60112z" fill-rule="evenodd"/>
<path fill="#ffffff" d="m235.21785 3.601122l0 0c0 -1.9888448 1.6122742 -3.601122 3.60112 -3.601122l14.404053 0l0 0c0.9550781 0 1.8710327 0.37940282 2.5463867 1.0547441c0.6753235 0.67534137 1.0547485 1.5913008 1.0547485 2.5463777l0 36.010353c0 1.9888458 -1.6122894 3.60112 -3.6011353 3.60112l-14.404053 0c-1.9888458 0 -3.60112 -1.6122742 -3.60112 -3.60112z" fill-rule="evenodd"/>
<path stroke="#000000" stroke-width="4.0" stroke-linejoin="round" stroke-linecap="butt" d="m235.21785 3.601122l0 0c0 -1.9888448 1.6122742 -3.601122 3.60112 -3.601122l14.404053 0l0 0c0.9550781 0 1.8710327 0.37940282 2.5463867 1.0547441c0.6753235 0.67534137 1.0547485 1.5913008 1.0547485 2.5463777l0 36.010353c0 1.9888458 -1.6122894 3.60112 -3.6011353 3.60112l-14.404053 0c-1.9888458 0 -3.60112 -1.6122742 -3.60112 -3.60112z" fill-rule="evenodd"/>
<path fill="#000000" fill-opacity="0.0" d="m2.0577428 99.42782l341.66928 0" fill-rule="evenodd"/>
<path stroke="#000000" stroke-width="4.0" stroke-linejoin="round" stroke-linecap="butt" d="m2.0577428 99.42782l341.66928 0" fill-rule="evenodd"/>
<path fill="#000000" fill-opacity="0.0" d="m172.8924 129.93015l0 120.25197" fill-rule="evenodd"/>
<path stroke="#000000" stroke-width="16.0" stroke-linejoin="round" stroke-linecap="butt" d="m172.8924 129.93015l0 120.25197" fill-rule="evenodd"/>
<path fill="#000000" fill-opacity="0.0" d="m114.08881 190.05307l117.6063 0" fill-rule="evenodd"/>
<path stroke="#000000" stroke-width="16.0" stroke-linejoin="round" stroke-linecap="butt" d="m114.08881 190.05307l117.6063 0" fill-rule="evenodd"/>
</g>
</svg>