<svg version="1.1" viewBox="0.0 0.0 800.0 600.0" fill="none" stroke="none" stroke-linecap="square" stroke-miterlimit="10" xmlns:xlink="http://www.w3.org/1999/xlink" xmlns="http://www.w3.org/2000/svg"><clipPath id="p.0"><path d="m0 0l800.0 0l0 600.0l-800.0 0l0 -600.0z" clip-rule="nonzero"/></clipPath><g clip-path="url(#p.0)"><path fill="#000000" fill-opacity="0.0" d="m0 0l800.0 0l0 600.0l-800.0 0z" fill-rule="evenodd"/><path fill="#ffffff" d="m212.00787 159.69116l0 0c0 -23.96762 19.42958 -43.3972 43.397186 -43.3972l255.91428 0c11.509644 0 22.547913 4.572197 30.686462 12.710739c8.13855 8.138565 12.710754 19.176804 12.710754 30.686462l0 173.58356c0 23.96762 -19.429626 43.397186 -43.397217 43.397186l-255.91428 0l0 0c-23.967606 0 -43.397186 -19.429565 -43.397186 -43.397186z" fill-rule="evenodd"/><path stroke="#000000" stroke-width="12.0" stroke-linejoin="round" stroke-linecap="butt" d="m212.00787 159.69116l0 0c0 -23.96762 19.42958 -43.3972 43.397186 -43.3972l255.91428 0c11.509644 0 22.547913 4.572197 30.686462 12.710739c8.13855 8.138565 12.710754 19.176804 12.710754 30.686462l0 173.58356c0 23.96762 -19.429626 43.397186 -43.397217 43.397186l-255.91428 0l0 0c-23.967606 0 -43.397186 -19.429565 -43.397186 -43.397186z" fill-rule="evenodd"/><path fill="#ffffff" d="m296.4042 90.88984l0 0c0 -1.9888458 1.6122742 -3.6011276 3.6011047 -3.6011276l14.404053 0l0 0c0.9550781 0 1.8710632 0.37940216 2.5463867 1.0547485c0.675354 0.67533875 1.0547485 1.591301 1.0547485 2.546379l0 36.010353c0 1.9888458 -1.6122742 3.60112 -3.6011353 3.60112l-14.404053 0c-1.9888306 0 -3.6011047 -1.6122742 -3.6011047 -3.60112z" fill-rule="evenodd"/><path stroke="#000000" stroke-width="4.0" stroke-linejoin="round" stroke-linecap="butt" d="m296.4042 90.88984l0 0c0 -1.9888458 1.6122742 -3.6011276 3.6011047 -3.6011276l14.404053 0l0 0c0.9550781 0 1.8710632 0.37940216 2.5463867 1.0547485c0.675354 0.67533875 1.0547485 1.591301 1.0547485 2.546379l0 36.010353c0 1.9888458 -1.6122742 3.60112 -3.6011353 3.60112l-14.404053 0c-1.9888306 0 -3.6011047 -1.6122742 -3.6011047 -3.60112z" fill-rule="evenodd"/><path fill="#ffffff" d="m447.2257 90.88984l0 0c0 -1.9888458 1.6123047 -3.6011276 3.6011353 -3.6011276l14.404053 0l0 0c0.9550781 0 1.8710327 0.37940216 2.5463867 1.0547485c0.6753235 0.67533875 1.0547485 1.591301 1.0547485 2.546379l0 36.010353c0 1.9888458 -1.6122742 3.60112 -3.6011353 3.60112l-14.404053 0c-1.9888306 0 -3.6011353 -1.6122742 -3.6011353 -3.60112z" fill-rule="evenodd"/><path stroke="#000000" stroke-width="4.0" stroke-linejoin="round" stroke-linecap="butt" d="m447.2257 90.88984l0 0c0 -1.9888458 1.6123047 -3.6011276 3.6011353 -3.6011276l14.404053 0l0 0c0.9550781 0 1.8710327 0.37940216 2.5463867 1.0547485c0.6753235 0.67533875 1.0547485 1.591301 1.0547485 2.546379l0 36.010353c0 1.9888458 -1.6122742 3.60112 -3.6011353 3.60112l-14.404053 0c-1.9888306 0 -3.6011353 -1.6122742 -3.6011353 -3.60112z" fill-rule="evenodd"/><path fill="#000000" fill-opacity="0.0" d="m214.06561 186.71654l341.6693 0" fill-rule="evenodd"/><path stroke="#000000" stroke-width="4.0" stroke-linejoin="round" stroke-linecap="butt" d="m214.06561 186.71654l341.6693 0" fill-rule="evenodd"/><path fill="#000000" fill-opacity="0.0" d="m384.90027 217.21886l0 120.25197" fill-rule="evenodd"/><path stroke="#000000" stroke-width="16.0" stroke-linejoin="round" stroke-linecap="butt" d="m384.90027 217.21886l0 120.25197" fill-rule="evenodd"/><path fill="#000000" fill-opacity="0.0" d="m326.09668 277.3418l117.60632 0" fill-rule="evenodd"/><path stroke="#000000" stroke-width="16.0" stroke-linejoin="round" stroke-linecap="butt" d="m326.09668 277.3418l117.60632 0" fill-rule="evenodd"/></g></svg>