<svg 
version="1.1" 
viewBox="0.0 0.0 240.0 240.0" 
fill="none" stroke="none" 
stroke-linecap="square" 
stroke-miterlimit="10" 
xmlns:xlink="http://www.w3.org/1999/xlink" 
xmlns="http://www.w3.org/2000/svg">

<g clip-path="url(#p.0)">
<path fill="#000000" d="m203.51443 84.37795l0 0c0 -46.600655 30.64206 -84.37795 68.44095 -84.37795l0 0c18.151672 0 35.559875 8.889794 48.39505 24.71373c12.835175 15.823936 20.045898 37.285797 20.045898 59.664223l0 0c0 46.600655 -30.64206 84.37795 -68.44095 84.37795l0 0c-37.79889 0 -68.44095 -37.777298 -68.44095 -84.37795z" fill-rule="evenodd"/>
<path stroke="#000000" stroke-width="1.0" stroke-linejoin="round" stroke-linecap="butt" d="m203.51443 84.37795l0 0c0 -46.600655 30.64206 -84.37795 68.44095 -84.37795l0 0c18.151672 0 35.559875 8.889794 48.39505 24.71373c12.835175 15.823936 20.045898 37.285797 20.045898 59.664223l0 0c0 46.600655 -30.64206 84.37795 -68.44095 84.37795l0 0c-37.79889 0 -68.44095 -37.777298 -68.44095 -84.37795z" fill-rule="evenodd"/>
<path fill="#ffffff" d="m221.01192 92.3832l0 0c0 -39.086105 22.674835 -70.77165 50.645676 -70.77165l0 0c13.432068 0 26.313995 7.456278 35.81189 20.728535c9.497894 13.272263 14.833771 31.273312 14.833771 50.043118l0 0c0 39.086113 -22.674835 70.77166 -50.64566 70.77166l0 0c-27.97084 0 -50.645676 -31.685547 -50.645676 -70.77166z" fill-rule="evenodd"/>
<path stroke="#000000" stroke-width="1.0" stroke-linejoin="round" stroke-linecap="butt" d="m221.01192 92.3832l0 0c0 -39.086105 22.674835 -70.77165 50.645676 -70.77165l0 0c13.432068 0 26.313995 7.456278 35.81189 20.728535c9.497894 13.272263 14.833771 31.273312 14.833771 50.043118l0 0c0 39.086113 -22.674835 70.77166 -50.64566 70.77166l0 0c-27.97084 0 -50.645676 -31.685547 -50.645676 -70.77166z" fill-rule="evenodd"/><path fill="#ffffff" d="m301.75067 61.51706l47.905487 0l0 48.377953l-47.905487 0z" fill-rule="evenodd"/>
<path fill="#000000" d="m194.2546 106.97165l0 0c0 -14.304611 11.596176 -25.90078 25.900787 -25.90078l103.60002 0l0 0c6.869293 0 13.457275 2.7288208 18.314606 7.5861588c4.8573303 4.857338 7.586151 11.445305 7.586151 18.314621l0 103.600006c0 14.304611 -11.596161 25.900787 -25.900757 25.900787l-103.60002 0c-14.304611 0 -25.900787 -11.596176 -25.900787 -25.900787z" fill-rule="evenodd"/></g>
</svg>