<svg version="1.1" viewBox="0.0 0.0 800.0 600.0" fill="none" stroke="none" stroke-linecap="square" stroke-miterlimit="10" xmlns:xlink="http://www.w3.org/1999/xlink" xmlns="http://www.w3.org/2000/svg"><clipPath id="p.0"><path d="m0 0l800.0 0l0 600.0l-800.0 0l0 -600.0z" clip-rule="nonzero"/></clipPath><g clip-path="url(#p.0)"><path fill="#000000" fill-opacity="0.0" d="m0 0l800.0 0l0 600.0l-800.0 0z" fill-rule="evenodd"/><path fill="#000000" d="m222.29659 219.19685l0 0c0 -46.600662 30.64206 -84.37796 68.44093 -84.37796l0 0c18.151672 0 35.559906 8.889801 48.39508 24.71373c12.835144 15.823944 20.045868 37.285797 20.045868 59.66423l0 0c0 46.600662 -30.642029 84.377945 -68.44095 84.377945l0 0c-37.798874 0 -68.44093 -37.777283 -68.44093 -84.377945z" fill-rule="evenodd"/><path stroke="#000000" stroke-width="1.0" stroke-linejoin="round" stroke-linecap="butt" d="m222.29659 219.19685l0 0c0 -46.600662 30.64206 -84.37796 68.44093 -84.37796l0 0c18.151672 0 35.559906 8.889801 48.39508 24.71373c12.835144 15.823944 20.045868 37.285797 20.045868 59.66423l0 0c0 46.600662 -30.642029 84.377945 -68.44095 84.377945l0 0c-37.798874 0 -68.44093 -37.777283 -68.44093 -84.377945z" fill-rule="evenodd"/><path fill="#ffffff" d="m239.79407 227.2021l0 0c0 -39.086105 22.674835 -70.77165 50.64566 -70.77165l0 0c13.432068 0 26.313995 7.4562683 35.81192 20.72853c9.497894 13.272263 14.833771 31.273315 14.833771 50.04312l0 0c0 39.086105 -22.674835 70.77165 -50.64569 70.77165l0 0c-27.970825 0 -50.64566 -31.685547 -50.64566 -70.77165z" fill-rule="evenodd"/><path stroke="#000000" stroke-width="1.0" stroke-linejoin="round" stroke-linecap="butt" d="m239.79407 227.2021l0 0c0 -39.086105 22.674835 -70.77165 50.64566 -70.77165l0 0c13.432068 0 26.313995 7.4562683 35.81192 20.72853c9.497894 13.272263 14.833771 31.273315 14.833771 50.04312l0 0c0 39.086105 -22.674835 70.77165 -50.64569 70.77165l0 0c-27.970825 0 -50.64566 -31.685547 -50.64566 -70.77165z" fill-rule="evenodd"/><path fill="#000000" d="m213.03674 233.79054l0 0c0 -14.304611 11.596176 -25.900772 25.900787 -25.900772l103.600006 0l0 0c6.8693237 0 13.457275 2.7288208 18.314606 7.586151c4.857361 4.8573456 7.5861816 11.4453125 7.5861816 18.314621l0 103.60002c0 14.304596 -11.596191 25.900787 -25.900787 25.900787l-103.600006 0c-14.304611 0 -25.900787 -11.596191 -25.900787 -25.900787z" fill-rule="evenodd"/></g></svg>