<svg version="1.1" viewBox="0.0 0.0 800.0 600.0" fill="none" stroke="none" stroke-linecap="square" stroke-miterlimit="10" xmlns:xlink="http://www.w3.org/1999/xlink" xmlns="http://www.w3.org/2000/svg"><clipPath id="p.0"><path d="m0 0l800.0 0l0 600.0l-800.0 0l0 -600.0z" clip-rule="nonzero"/></clipPath><g clip-path="url(#p.0)"><path fill="#000000" fill-opacity="0.0" d="m0 0l800.0 0l0 600.0l-800.0 0z" fill-rule="evenodd"/><path fill="#000000" d="m421.4882 211.19685l0 0c0 -46.600662 30.64206 -84.37795 68.44095 -84.37795l0 0c18.151672 0 35.559875 8.889793 48.39508 24.713722c12.835144 15.823944 20.045837 37.285797 20.045837 59.66423l0 0c0 46.600662 -30.642029 84.377945 -68.44092 84.377945l0 0c-37.79889 0 -68.44095 -37.777283 -68.44095 -84.377945z" fill-rule="evenodd"/><path stroke="#000000" stroke-width="1.0" stroke-linejoin="round" stroke-linecap="butt" d="m421.4882 211.19685l0 0c0 -46.600662 30.64206 -84.37795 68.44095 -84.37795l0 0c18.151672 0 35.559875 8.889793 48.39508 24.713722c12.835144 15.823944 20.045837 37.285797 20.045837 59.66423l0 0c0 46.600662 -30.642029 84.377945 -68.44092 84.377945l0 0c-37.79889 0 -68.44095 -37.777283 -68.44095 -84.377945z" fill-rule="evenodd"/><path fill="#ffffff" d="m438.98566 219.2021l0 0c0 -39.086105 22.674866 -70.77165 50.64569 -70.77165l0 0c13.432068 0 26.313965 7.4562683 35.81189 20.72853c9.497925 13.272263 14.833801 31.273315 14.833801 50.04312l0 0c0 39.086105 -22.674866 70.77165 -50.64569 70.77165l0 0c-27.970825 0 -50.64569 -31.685547 -50.64569 -70.77165z" fill-rule="evenodd"/><path stroke="#000000" stroke-width="1.0" stroke-linejoin="round" stroke-linecap="butt" d="m438.98566 219.2021l0 0c0 -39.086105 22.674866 -70.77165 50.64569 -70.77165l0 0c13.432068 0 26.313965 7.4562683 35.81189 20.72853c9.497925 13.272263 14.833801 31.273315 14.833801 50.04312l0 0c0 39.086105 -22.674866 70.77165 -50.64569 70.77165l0 0c-27.970825 0 -50.64569 -31.685547 -50.64569 -70.77165z" fill-rule="evenodd"/><path fill="#ffffff" d="m519.7244 188.33595l47.905518 0l0 48.37796l-47.905518 0z" fill-rule="evenodd"/><path fill="#000000" d="m412.22833 233.79054l0 0c0 -14.304611 11.596191 -25.900772 25.900787 -25.900772l103.600006 0l0 0c6.8693237 0 13.457275 2.7288208 18.314636 7.586151c4.857361 4.8573456 7.5861816 11.4453125 7.5861816 18.314621l0 103.60002c0 14.304596 -11.596191 25.900787 -25.900818 25.900787l-103.600006 0c-14.304596 0 -25.900787 -11.596191 -25.900787 -25.900787z" fill-rule="evenodd"/></g></svg>